<?xml version="1.0" encoding="UTF-8"?>
<!-- Generated by Pixelmator Pro 3.6.4 -->
<svg width="1024" height="1024" viewBox="0 0 1024 1024" xmlns="http://www.w3.org/2000/svg">
    <path id="Rectangle" fill="#ffffff" fill-rule="evenodd" stroke="none" d="M 0 1024 L 1024 1024 L 1024 0 L 0 0 Z"/>
    <path id="Path" fill="#4285f4" stroke="none" d="M 695.752441 711.236694 L 759.075073 790.660889 L 686.772705 845.932739 L 641.254639 788.802979 C 599.607239 826.889526 549.754211 845.932739 491.385925 845.932739 C 448.035461 845.932739 408.245941 836.178894 372.326965 816.516357 C 336.40802 796.853821 307.920563 770.069458 287.174255 735.853516 C 266.427979 701.637573 255.900009 663.551147 255.900009 621.284424 C 255.900009 585.055786 265.344208 550.220642 284.387451 516.933655 C 303.430695 483.646729 329.286163 455.93335 361.953827 433.948425 C 333.776001 396.94574 319.532288 362.729797 319.532288 331.30072 C 319.532288 303.432556 326.499329 277.577087 340.433411 254.198853 C 354.367493 230.66571 373.565552 212.241821 398.027588 198.927002 C 422.334808 185.612244 449.428864 178.799988 479.154907 178.799988 C 517.241394 178.799988 548.980103 188.708679 574.52594 208.680847 C 600.071777 228.653015 618.186035 254.353638 628.868835 285.782776 L 547.741516 328.513916 C 532.87854 288.105164 510.274353 267.823242 479.929016 267.823242 C 461.505066 267.823242 446.177582 273.551758 433.946564 284.699036 C 421.715546 296.001099 415.67746 311.173706 415.67746 330.21698 C 415.67746 348.64093 422.799286 366.755249 437.042999 384.559937 L 639.551636 640.482483 L 694.823486 550.375427 L 767.899963 595.893433 L 695.752441 711.236694 Z M 587.066589 719.287415 L 415.832245 501.60614 C 395.085968 514.766113 378.674713 531.796631 366.753326 552.8526 C 354.83197 573.908569 348.948669 596.048218 348.948669 619.271729 C 348.948669 645.436829 355.451233 669.124756 368.611206 690.180664 C 381.616364 711.236694 399.421021 727.647827 421.715546 739.259644 C 444.01004 750.871338 468.162476 756.599792 494.327545 756.599792 C 531.175476 756.599792 561.985291 744.213989 587.066589 719.287415 Z"/>
</svg>
